<?xml version="1.0" encoding="utf-8"?>
<!-- Generator: Adobe Illustrator 23.0.1, SVG Export Plug-In . SVG Version: 6.00 Build 0)  -->
<svg version="1.1" id="Layer_1" xmlns="http://www.w3.org/2000/svg" xmlns:xlink="http://www.w3.org/1999/xlink" x="0px" y="0px"
	 viewBox="0 0 1366 768" style="enable-background:new 0 0 1366 768;" xml:space="preserve">
<style type="text/css">
	.st0{fill:#F16522;}
	.st1{fill:#EEA616;}
	.st2{fill:#5B57A4;}
	.st3{fill:#009182;}
	.st4{fill:#231F20;}
</style>
<g>
	<g>
		<path class="st0" d="M105.74,308.21c19.49-19.48,46.42-31.54,76.16-31.54c29.67,0,56.53,12,76,31.39l0.08-71.72
			c-22.79-11.74-48.67-18.37-76.08-18.37c-27.42,0-53.43,7.47-76.24,19.22L105.74,308.21z"/>
		<path class="st1" d="M257.97,460.41c-19.48,19.49-46.4,31.54-76.14,31.54c-29.66,0-56.53-11.99-76.01-31.39l-0.08,71.72
			c22.82,11.74,48.67,18.37,76.09,18.37c27.42,0,53.29-6.63,76.09-18.38L257.97,460.41z"/>
		<path class="st2" d="M105.89,460.5c-19.49-19.48-31.55-46.4-31.55-76.14c0-29.66,12-56.52,31.39-76.01l-71.72-0.07
			c-11.73,22.8-18.37,48.67-18.37,76.08c0,27.42,6.64,53.3,18.38,76.1L105.89,460.5z"/>
		<path class="st3" d="M257.93,308.06c19.49,19.48,31.55,46.41,31.55,76.16c0,29.67-12,56.53-31.4,76l71.73,0.08
			c11.74-22.8,18.36-48.67,18.36-76.08c0-27.43-6.62-53.3-18.38-76.11L257.93,308.06z"/>
	</g>
	<path class="st4" d="M419.11,384.32c0-44.42,32.18-77.21,76.81-77.21c44.62,0,76.81,32.79,76.81,77.21
		c0,44.42-32.18,77.23-76.81,77.23C451.29,461.55,419.11,428.75,419.11,384.32z M554.05,384.32c0-33.84-23.67-61.02-58.12-61.02
		c-34.46,0-58.12,27.18-58.12,61.02c0,33.84,23.65,61.04,58.12,61.04C530.38,445.36,554.05,418.16,554.05,384.32z"/>
	<path class="st4" d="M592.87,358.42h16.43v14.33h0.42c9.08-10.54,21.09-16.86,35.41-16.86c31,0,51.86,21.93,51.86,51.87
		c0,29.51-21.71,51.86-49.32,51.86c-17.72,0-31.84-8.86-37.95-20.03h-0.42v64.15h-16.43V358.42z M644.3,444.42
		c21.3,0,35-16.01,35-36.68c0-20.66-13.71-36.69-35-36.69c-21.3,0-35,16.02-35,36.69C609.3,428.41,622.99,444.42,644.3,444.42z"/>
	<path class="st4" d="M806.41,439.16c-11.6,14.96-25.52,20.45-43.86,20.45c-30.98,0-49.95-23.18-49.95-51.86
		c0-30.56,21.5-51.87,50.59-51.87c27.83,0,46.79,18.98,46.79,51.66v5.27h-79.67c1.26,17.07,14.33,31.62,32.24,31.62
		c14.12,0,23.61-5.06,31.41-14.96L806.41,439.16z M792.29,398.89c-0.63-16.65-11.6-27.83-29.73-27.83
		c-18.12,0-30.13,11.17-32.24,27.83H792.29z"/>
	<path class="st4" d="M831.28,381.82c0-9.08-0.84-16.87-0.84-23.4h15.6c0,5.27,0.43,10.74,0.43,16.23h0.42
		c4.43-9.69,16.66-18.77,32.88-18.77c25.94,0,37.53,16.45,37.53,40.27v60.92h-16.44v-59.22c0-16.45-7.18-26.78-22.56-26.78
		c-21.29,0-30.57,15.39-30.57,37.95v48.05h-16.44V381.82z"/>
	<path class="st4" d="M952.58,310.85h25.94l49.84,115.21h0.42l50.21-115.21h25.33V457.8h-17.43v-123.3h-0.42l-52.73,123.3h-10.59
		l-52.72-123.3h-0.42v123.3h-17.43V310.85z"/>
	<path class="st4" d="M1140.87,310.85h37.56c28.44,0,58.54,4.15,58.54,40.47c0,21.38-13.91,35.3-36.73,38.82l41.72,67.66h-21.37
		l-39.86-66h-22.42v66h-17.43V310.85z M1158.29,375.61h15.56c19.31,0,44.44,0,44.44-24.3c0-21.17-18.48-24.28-35.51-24.28h-24.5
		V375.61z"/>
	<path class="st4" d="M1335.19,336.78c-5.82-9.34-16.19-13.48-26.79-13.48c-15.37,0-31.33,7.27-31.33,24.7
		c0,13.49,7.47,19.52,30.92,27c22.84,7.27,44.01,14.73,44.01,43.58c0,29.27-25.13,42.98-51.68,42.98c-17.02,0-35.3-5.61-45.26-20.35
		l14.94-12.25c6.23,10.81,18.69,16.41,31.35,16.41c14.94,0,31.96-8.72,31.96-25.54c0-18.06-12.24-21.18-38.4-29.89
		c-20.76-6.86-36.52-15.99-36.52-40.47c0-28.23,24.28-42.34,50.01-42.34c16.41,0,30.31,4.56,41.1,17.22L1335.19,336.78z"/>
	<path class="st4" d="M668.93,504.22h5.51l10.58,24.47h0.08l10.67-24.47h5.38v31.21h-3.7v-26.18h-0.08l-11.21,26.18h-2.24
		l-11.2-26.18h-0.08v26.18h-3.7V504.22z"/>
	<path class="st4" d="M717.3,504.22h19.61v3.44H721v9.79h14.86v3.44H721v11.11h16.71v3.44H717.3V504.22z"/>
	<path class="st4" d="M750.35,504.22h12c6.13,0,15.3,4.1,15.3,15.61c0,11.51-9.17,15.6-15.3,15.6h-12V504.22z M754.06,531.99h7.05
		c7.15,0,12.57-3.61,12.57-12.16c0-8.56-5.43-12.17-12.57-12.17h-7.05V531.99z"/>
	<path class="st4" d="M789.33,504.22h3.7v31.21h-3.7V504.22z"/>
	<path class="st4" d="M828.39,510.65c-1.85-2.51-4.81-3.79-7.81-3.79c-6.96,0-11.9,6.13-11.9,12.96c0,7.23,4.9,12.96,11.9,12.96
		c3.79,0,6.84-1.54,9.04-4.36l2.78,2.33c-2.78,3.75-6.83,5.47-11.82,5.47c-8.95,0-15.87-6.92-15.87-16.4
		c0-9.17,6.61-16.4,15.87-16.4c4.23,0,8.37,1.45,11.02,4.89L828.39,510.65z"/>
	<path class="st4" d="M851.67,504.22h3.48l13.27,31.21h-4.32l-3.18-7.67h-15.61l-3.22,7.67h-4.18L851.67,504.22z M853.34,508.98
		h-0.09l-6.48,15.34h12.74L853.34,508.98z"/>
	<path class="st4" d="M878.29,504.22H882v27.77h14.27v3.44h-17.98V504.22z"/>
	<path class="st4" d="M924.05,504.22h7.98c6.04,0,12.42,0.88,12.42,8.6c0,4.54-2.95,7.49-7.8,8.24l8.86,14.37h-4.53l-8.47-14.02
		h-4.76v14.02h-3.7V504.22z M927.76,517.97h3.3c4.1,0,9.44,0,9.44-5.15c0-4.5-3.92-5.16-7.54-5.16h-5.2V517.97z"/>
	<path class="st4" d="M957.6,504.22h19.62v3.44h-15.91v9.79h14.85v3.44h-14.85v11.11h16.7v3.44H957.6V504.22z"/>
	<path class="st4" d="M1011.34,510.65c-1.85-2.51-4.81-3.79-7.81-3.79c-6.96,0-11.91,6.13-11.91,12.96c0,7.23,4.9,12.96,11.91,12.96
		c3.79,0,6.83-1.54,9.04-4.36l2.77,2.33c-2.77,3.75-6.83,5.47-11.81,5.47c-8.95,0-15.87-6.92-15.87-16.4
		c0-9.17,6.61-16.4,15.87-16.4c4.23,0,8.37,1.45,11.02,4.89L1011.34,510.65z"/>
	<path class="st4" d="M1022.67,519.83c0-9.44,6.83-16.4,16.31-16.4c9.48,0,16.31,6.96,16.31,16.4c0,9.43-6.83,16.4-16.31,16.4
		C1029.5,536.22,1022.67,529.26,1022.67,519.83z M1051.33,519.83c0-7.19-5.03-12.96-12.35-12.96c-7.32,0-12.35,5.78-12.35,12.96
		c0,7.18,5.03,12.96,12.35,12.96C1046.3,532.78,1051.33,527.01,1051.33,519.83z"/>
	<path class="st4" d="M1066.09,504.22h7.98c6.05,0,12.44,0.88,12.44,8.6c0,4.54-2.95,7.49-7.8,8.24l8.86,14.37h-4.55l-8.46-14.02
		h-4.75v14.02h-3.71V504.22z M1069.8,517.97h3.3c4.1,0,9.44,0,9.44-5.15c0-4.5-3.92-5.16-7.54-5.16h-5.2V517.97z"/>
	<path class="st4" d="M1098.19,504.22h11.99c6.13,0,15.3,4.1,15.3,15.61c0,11.51-9.17,15.6-15.3,15.6h-11.99V504.22z
		 M1101.89,531.99h7.06c7.14,0,12.56-3.61,12.56-12.16c0-8.56-5.42-12.17-12.56-12.17h-7.06V531.99z"/>
	<path class="st4" d="M1169.96,509.73c-1.24-1.98-3.44-2.86-5.69-2.86c-3.26,0-6.66,1.54-6.66,5.25c0,2.86,1.59,4.14,6.57,5.73
		c4.86,1.54,9.35,3.13,9.35,9.26c0,6.22-5.34,9.13-10.98,9.13c-3.62,0-7.5-1.19-9.62-4.32l3.18-2.6c1.32,2.3,3.97,3.48,6.65,3.48
		c3.18,0,6.79-1.85,6.79-5.42c0-3.84-2.6-4.5-8.16-6.35c-4.4-1.45-7.76-3.4-7.76-8.59c0-6,5.16-8.99,10.62-8.99
		c3.48,0,6.43,0.97,8.73,3.66L1169.96,509.73z"/>
	<path class="st4" d="M1190.99,521.99l-11.64-17.77h4.72l8.77,14.11l9.03-14.11h4.46l-11.64,17.77v13.44h-3.7V521.99z"/>
	<path class="st4" d="M1228.59,509.73c-1.23-1.98-3.44-2.86-5.69-2.86c-3.26,0-6.65,1.54-6.65,5.25c0,2.86,1.58,4.14,6.57,5.73
		c4.85,1.54,9.34,3.13,9.34,9.26c0,6.22-5.34,9.13-10.97,9.13c-3.62,0-7.5-1.19-9.62-4.32l3.18-2.6c1.32,2.3,3.96,3.48,6.65,3.48
		c3.17,0,6.78-1.85,6.78-5.42c0-3.84-2.59-4.5-8.15-6.35c-4.41-1.45-7.76-3.4-7.76-8.59c0-6,5.16-8.99,10.62-8.99
		c3.48,0,6.44,0.97,8.73,3.66L1228.59,509.73z"/>
	<path class="st4" d="M1262.32,507.66H1252v27.78h-3.7v-27.78h-10.32v-3.44h24.34V507.66z"/>
	<path class="st4" d="M1271.53,504.22h19.62v3.44h-15.91v9.79h14.85v3.44h-14.85v11.11h16.71v3.44h-20.42V504.22z"/>
	<path class="st4" d="M1303.4,504.22h5.51l10.58,24.47h0.09l10.67-24.47h5.38v31.21h-3.7v-26.18h-0.09l-11.19,26.18h-2.26
		l-11.19-26.18h-0.09v26.18h-3.7V504.22z"/>
</g>
</svg>
